<mxfile host="app.diagrams.net" agent="Mozilla/5.0 (Windows NT 10.0; Win64; x64) AppleWebKit/537.36 (KHTML, like Gecko) Chrome/132.0.0.0 Safari/537.36" version="26.0.11">
  <diagram name="Page-1" id="qAKQoBbAQ0L9dx9pgFqN">
    <mxGraphModel dx="794" dy="454" grid="1" gridSize="10" guides="1" tooltips="1" connect="1" arrows="1" fold="1" page="1" pageScale="1" pageWidth="850" pageHeight="1100" math="0" shadow="0">
      <root>
        <mxCell id="0" />
        <mxCell id="1" parent="0" />
        <mxCell id="09F-9vpj65KBVDh760rI-1" value="Client (User)" style="ellipse;whiteSpace=wrap;html=1;" vertex="1" parent="1">
          <mxGeometry x="320" y="10" width="120" height="80" as="geometry" />
        </mxCell>
        <mxCell id="09F-9vpj65KBVDh760rI-2" value="&lt;br&gt;&lt;br&gt;Load Balancer(NGINX)&lt;div&gt;192.168.56.104:80&lt;/div&gt;&lt;div&gt;&lt;br&gt;&lt;/div&gt;" style="rhombus;whiteSpace=wrap;html=1;" vertex="1" parent="1">
          <mxGeometry x="305" y="310" width="150" height="100" as="geometry" />
        </mxCell>
        <mxCell id="09F-9vpj65KBVDh760rI-3" value="App-vm&lt;br&gt;(Node.js)" style="rounded=0;whiteSpace=wrap;html=1;" vertex="1" parent="1">
          <mxGeometry x="10" y="520" width="280" height="80" as="geometry" />
        </mxCell>
        <mxCell id="09F-9vpj65KBVDh760rI-4" value="DB-vm&lt;br&gt;(PostgreSQL)" style="rounded=0;whiteSpace=wrap;html=1;" vertex="1" parent="1">
          <mxGeometry x="520" y="520" width="280" height="80" as="geometry" />
        </mxCell>
        <mxCell id="09F-9vpj65KBVDh760rI-5" value="" style="rounded=0;whiteSpace=wrap;html=1;" vertex="1" parent="1">
          <mxGeometry x="240" y="760" width="280" height="80" as="geometry" />
        </mxCell>
        <mxCell id="09F-9vpj65KBVDh760rI-6" value="Host (Virtual box)&amp;nbsp;" style="ellipse;whiteSpace=wrap;html=1;" vertex="1" parent="1">
          <mxGeometry x="330" y="970" width="120" height="80" as="geometry" />
        </mxCell>
        <mxCell id="09F-9vpj65KBVDh760rI-7" value="" style="shape=flexArrow;endArrow=classic;startArrow=classic;html=1;rounded=0;" edge="1" parent="1">
          <mxGeometry width="100" height="100" relative="1" as="geometry">
            <mxPoint x="380" y="300" as="sourcePoint" />
            <mxPoint x="380" y="100" as="targetPoint" />
            <Array as="points" />
          </mxGeometry>
        </mxCell>
        <mxCell id="09F-9vpj65KBVDh760rI-8" value="HTTP Response :80&amp;nbsp;" style="edgeLabel;html=1;align=center;verticalAlign=middle;resizable=0;points=[];rotation=90;" vertex="1" connectable="0" parent="09F-9vpj65KBVDh760rI-7">
          <mxGeometry x="0.07" y="2" relative="1" as="geometry">
            <mxPoint x="2" as="offset" />
          </mxGeometry>
        </mxCell>
      </root>
    </mxGraphModel>
  </diagram>
</mxfile>
